<svg width="2679" height="1080" viewBox="0 0 2679 1080" fill="none" xmlns="http://www.w3.org/2000/svg">
<g clip-path="url(#clip0)">
<rect width="774" height="1080" transform="translate(1905)" fill="#CBE6FF"/>
<rect width="774" height="1080" transform="translate(1905)" fill="url(#paint0_linear)"/>
<circle cx="2483.22" cy="414.292" r="196.872" fill="#E2F1FF"/>
<circle cx="2840.38" cy="367.669" r="300.669" fill="#E2F1FF"/>
<path d="M2386.32 383.5C2386.32 540.404 2259.13 667.6 2102.22 667.6C1945.32 667.6 1818.12 540.404 1818.12 383.5C1818.12 226.596 1945.32 99.3999 2102.22 99.3999C2259.13 99.3999 2386.32 226.596 2386.32 383.5Z" fill="#E2F1FF"/>
<path d="M1885.78 518.526C2222.51 733.965 1836.69 628.17 1776.14 628.17C1715.58 628.17 1666.49 579.081 1666.49 518.526C1666.49 457.971 1715.58 408.882 1776.14 408.882C1836.69 408.882 1885.78 457.971 1885.78 518.526Z" fill="#E2F1FF"/>
<path d="M1845 682C2481.3 319.155 3518.85 889.347 3848.85 628V997.491L1866.08 997.491L1845 682Z" fill="#5FAF8D"/>
<path d="M2259.48 498.059L2307.55 637.328H2211.4L2259.48 498.059Z" fill="#5FAF8D"/>
<path d="M2161.74 510.429L2209.81 649.698H2113.67L2161.74 510.429Z" fill="#5FAF8D"/>
<path d="M1914 831.5C2488.94 989.5 2576.4 596.051 3474.59 773.278C4372.78 950.506 3704.43 1153.72 3704.43 1153.72L1720.68 1153.72C1720.68 1153.72 1339.06 673.5 1914 831.5Z" fill="#85D6B3"/>
</g>
<g clip-path="url(#clip1)">
<rect width="1920" height="1080" fill="#CBE6FF"/>
<rect width="1920" height="1080" fill="url(#paint1_linear)"/>
<circle cx="578.22" cy="414.292" r="196.872" fill="#E2F1FF"/>
<circle cx="935.378" cy="367.669" r="300.669" fill="#E2F1FF"/>
<circle cx="1237.38" cy="537.308" r="174.605" fill="#E2F1FF"/>
<circle cx="1519" cy="435.925" r="185.87" fill="#E2F1FF"/>
<circle cx="197.637" cy="367.998" r="284.1" fill="#E2F1FF"/>
<path d="M-19.2176 518.526C317.512 733.965 -68.3069 628.17 -128.862 628.17C-189.417 628.17 -238.506 579.081 -238.506 518.526C-238.506 457.971 -189.417 408.882 -128.862 408.882C-68.3069 408.882 -19.2176 457.971 -19.2176 518.526Z" fill="#E2F1FF"/>
<circle cx="1557.76" cy="747.858" r="300.669" fill="#E2F1FF"/>
<circle cx="1867.55" cy="460.604" r="300.669" fill="#E2F1FF"/>
<path d="M-51.6523 672.769C584.652 309.924 1623.2 883.146 1953.2 621.799V991.291L-29.5684 991.291L-51.6523 672.769Z" fill="#5FAF8D"/>
<path d="M7.3996 531.118L58.5401 696.84H-43.7409L7.3996 531.118Z" fill="#5FAF8D"/>
<path d="M363.823 489.059L411.895 628.328H315.751L363.823 489.059Z" fill="#5FAF8D"/>
<path d="M857.805 466.792L906.321 641.213H809.289L857.805 466.792Z" fill="#5FAF8D"/>
<path d="M852.88 706.347L900.952 845.616H804.808L852.88 706.347Z" fill="#5FAF8D"/>
<path d="M851.696 591.197L899.768 730.466H803.624L851.696 591.197Z" fill="#5FAF8D"/>
<path d="M910.751 538.29L954.732 717.239H866.771L910.751 538.29Z" fill="#5FAF8D"/>
<path d="M50.4627 545.24L98.5347 684.509H2.39062L50.4627 545.24Z" fill="#5FAF8D"/>
<path d="M1200.61 548.436L1244.6 704.822H1156.63L1200.61 548.436Z" fill="#5FAF8D"/>
<path d="M1303.59 580.599L1347.98 736.464H1259.2L1303.59 580.599Z" fill="#5FAF8D"/>
<path d="M1252.19 506.377L1322.25 677.546H1182.13L1252.19 506.377Z" fill="#5FAF8D"/>
<path d="M266.085 501.429L314.157 640.698H218.013L266.085 501.429Z" fill="#5FAF8D"/>
<path d="M1200.61 548.436L1244.6 704.822H1156.63L1200.61 548.436Z" fill="#5FAF8D"/>
<path d="M1896.78 578L1940.77 734.386H1852.8L1896.78 578Z" fill="#5FAF8D"/>
<path d="M1760.83 583.073L1804.81 739.459H1716.85L1760.83 583.073Z" fill="#5FAF8D"/>
<path d="M1720.3 630.08L1764.28 786.466H1676.32L1720.3 630.08Z" fill="#5FAF8D"/>
<path d="M1851.42 538.54L1895.4 694.926H1807.44L1851.42 538.54Z" fill="#5FAF8D"/>
<path d="M1798.97 620.183L1842.95 776.569H1754.99L1798.97 620.183Z" fill="#5FAF8D"/>
<g filter="url(#filter0_i)">
<rect x="218" y="500.179" width="379.915" height="347.132" fill="#CACACA"/>
</g>
<g filter="url(#filter1_i)">
<rect x="580.009" y="435.117" width="122.428" height="412.968" fill="#CACACA"/>
</g>
<g filter="url(#filter2_i)">
<path d="M640.564 258.067L731.022 440.183H550.105L640.564 258.067Z" fill="#CACACA"/>
</g>
<g filter="url(#filter3_i)">
<rect x="237.437" y="475.384" width="37.8943" height="24.7952" fill="#CACACA"/>
</g>
<g filter="url(#filter4_i)">
<rect x="524.071" y="475.384" width="37.8943" height="24.7952" fill="#CACACA"/>
</g>
<g filter="url(#filter5_i)">
<rect x="466.74" y="475.384" width="37.8943" height="24.7952" fill="#CACACA"/>
</g>
<g filter="url(#filter6_i)">
<rect x="409.417" y="475.384" width="37.8943" height="24.7952" fill="#CACACA"/>
</g>
<g filter="url(#filter7_i)">
<rect x="352.091" y="475.384" width="37.8943" height="24.7952" fill="#CACACA"/>
</g>
<g filter="url(#filter8_i)">
<rect x="294.76" y="475.384" width="37.8943" height="24.7952" fill="#CACACA"/>
</g>
<g filter="url(#filter9_i)">
<g filter="url(#filter10_i)">
<path fill-rule="evenodd" clip-rule="evenodd" d="M331.298 743.213C332.896 702.61 372.284 670.11 420.64 670.11C468.995 670.11 508.383 702.61 509.981 743.213H510.032V848.379H331.248V745.961C331.248 745.9 331.248 745.839 331.248 745.778C331.248 745.716 331.248 745.654 331.248 745.592V743.213H331.298Z" fill="#999999"/>
</g>
</g>
<g filter="url(#filter11_i)">
<g filter="url(#filter12_i)">
<path fill-rule="evenodd" clip-rule="evenodd" d="M662.029 509.209C662.03 509.107 662.03 509.004 662.03 508.901C662.03 508.798 662.03 508.694 662.029 508.59V507.819H662.018C661.645 490.682 652.44 476.965 641.139 476.965C629.839 476.965 620.634 490.682 620.261 507.819H620.248V552.205H662.029V509.209Z" fill="#999999"/>
</g>
</g>
<path d="M499.526 223.786C577.744 240.886 598.524 242.958 643.573 213L643.573 255.946C574.02 266.643 556.53 252.413 499.526 223.786Z" fill="#CF0323"/>
<path d="M253.031 781.56C816.98 995.167 810.04 604.332 1708.23 781.56C2606.41 958.787 1683.06 1162 1683.06 1162H-45.6889C-45.6889 1162 -310.918 567.952 253.031 781.56Z" fill="#85D6B3"/>
</g>
<defs>
<filter id="filter0_i" x="218" y="500.179" width="399.915" height="347.132" filterUnits="userSpaceOnUse" color-interpolation-filters="sRGB">
<feFlood flood-opacity="0" result="BackgroundImageFix"/>
<feBlend mode="normal" in="SourceGraphic" in2="BackgroundImageFix" result="shape"/>
<feColorMatrix in="SourceAlpha" type="matrix" values="0 0 0 0 0 0 0 0 0 0 0 0 0 0 0 0 0 0 127 0" result="hardAlpha"/>
<feOffset dx="25"/>
<feGaussianBlur stdDeviation="10"/>
<feComposite in2="hardAlpha" operator="arithmetic" k2="-1" k3="1"/>
<feColorMatrix type="matrix" values="0 0 0 0 0 0 0 0 0 0 0 0 0 0 0 0 0 0 0.06 0"/>
<feBlend mode="normal" in2="shape" result="effect1_innerShadow"/>
</filter>
<filter id="filter1_i" x="580.009" y="435.117" width="142.428" height="422.968" filterUnits="userSpaceOnUse" color-interpolation-filters="sRGB">
<feFlood flood-opacity="0" result="BackgroundImageFix"/>
<feBlend mode="normal" in="SourceGraphic" in2="BackgroundImageFix" result="shape"/>
<feColorMatrix in="SourceAlpha" type="matrix" values="0 0 0 0 0 0 0 0 0 0 0 0 0 0 0 0 0 0 127 0" result="hardAlpha"/>
<feOffset dx="25" dy="10"/>
<feGaussianBlur stdDeviation="10"/>
<feComposite in2="hardAlpha" operator="arithmetic" k2="-1" k3="1"/>
<feColorMatrix type="matrix" values="0 0 0 0 0 0 0 0 0 0 0 0 0 0 0 0 0 0 0.06 0"/>
<feBlend mode="normal" in2="shape" result="effect1_innerShadow"/>
</filter>
<filter id="filter2_i" x="550.105" y="258.067" width="200.917" height="182.116" filterUnits="userSpaceOnUse" color-interpolation-filters="sRGB">
<feFlood flood-opacity="0" result="BackgroundImageFix"/>
<feBlend mode="normal" in="SourceGraphic" in2="BackgroundImageFix" result="shape"/>
<feColorMatrix in="SourceAlpha" type="matrix" values="0 0 0 0 0 0 0 0 0 0 0 0 0 0 0 0 0 0 127 0" result="hardAlpha"/>
<feOffset dx="25"/>
<feGaussianBlur stdDeviation="10"/>
<feComposite in2="hardAlpha" operator="arithmetic" k2="-1" k3="1"/>
<feColorMatrix type="matrix" values="0 0 0 0 0 0 0 0 0 0 0 0 0 0 0 0 0 0 0.06 0"/>
<feBlend mode="normal" in2="shape" result="effect1_innerShadow"/>
</filter>
<filter id="filter3_i" x="237.437" y="475.384" width="43.8943" height="24.7952" filterUnits="userSpaceOnUse" color-interpolation-filters="sRGB">
<feFlood flood-opacity="0" result="BackgroundImageFix"/>
<feBlend mode="normal" in="SourceGraphic" in2="BackgroundImageFix" result="shape"/>
<feColorMatrix in="SourceAlpha" type="matrix" values="0 0 0 0 0 0 0 0 0 0 0 0 0 0 0 0 0 0 127 0" result="hardAlpha"/>
<feOffset dx="10"/>
<feGaussianBlur stdDeviation="3"/>
<feComposite in2="hardAlpha" operator="arithmetic" k2="-1" k3="1"/>
<feColorMatrix type="matrix" values="0 0 0 0 0 0 0 0 0 0 0 0 0 0 0 0 0 0 0.06 0"/>
<feBlend mode="normal" in2="shape" result="effect1_innerShadow"/>
</filter>
<filter id="filter4_i" x="524.071" y="475.384" width="42.8943" height="24.7952" filterUnits="userSpaceOnUse" color-interpolation-filters="sRGB">
<feFlood flood-opacity="0" result="BackgroundImageFix"/>
<feBlend mode="normal" in="SourceGraphic" in2="BackgroundImageFix" result="shape"/>
<feColorMatrix in="SourceAlpha" type="matrix" values="0 0 0 0 0 0 0 0 0 0 0 0 0 0 0 0 0 0 127 0" result="hardAlpha"/>
<feOffset dx="5"/>
<feGaussianBlur stdDeviation="3"/>
<feComposite in2="hardAlpha" operator="arithmetic" k2="-1" k3="1"/>
<feColorMatrix type="matrix" values="0 0 0 0 0 0 0 0 0 0 0 0 0 0 0 0 0 0 0.06 0"/>
<feBlend mode="normal" in2="shape" result="effect1_innerShadow"/>
</filter>
<filter id="filter5_i" x="466.74" y="475.384" width="43.8943" height="24.7952" filterUnits="userSpaceOnUse" color-interpolation-filters="sRGB">
<feFlood flood-opacity="0" result="BackgroundImageFix"/>
<feBlend mode="normal" in="SourceGraphic" in2="BackgroundImageFix" result="shape"/>
<feColorMatrix in="SourceAlpha" type="matrix" values="0 0 0 0 0 0 0 0 0 0 0 0 0 0 0 0 0 0 127 0" result="hardAlpha"/>
<feOffset dx="10"/>
<feGaussianBlur stdDeviation="3"/>
<feComposite in2="hardAlpha" operator="arithmetic" k2="-1" k3="1"/>
<feColorMatrix type="matrix" values="0 0 0 0 0 0 0 0 0 0 0 0 0 0 0 0 0 0 0.06 0"/>
<feBlend mode="normal" in2="shape" result="effect1_innerShadow"/>
</filter>
<filter id="filter6_i" x="409.417" y="475.384" width="43.8943" height="24.7952" filterUnits="userSpaceOnUse" color-interpolation-filters="sRGB">
<feFlood flood-opacity="0" result="BackgroundImageFix"/>
<feBlend mode="normal" in="SourceGraphic" in2="BackgroundImageFix" result="shape"/>
<feColorMatrix in="SourceAlpha" type="matrix" values="0 0 0 0 0 0 0 0 0 0 0 0 0 0 0 0 0 0 127 0" result="hardAlpha"/>
<feOffset dx="10"/>
<feGaussianBlur stdDeviation="3"/>
<feComposite in2="hardAlpha" operator="arithmetic" k2="-1" k3="1"/>
<feColorMatrix type="matrix" values="0 0 0 0 0 0 0 0 0 0 0 0 0 0 0 0 0 0 0.06 0"/>
<feBlend mode="normal" in2="shape" result="effect1_innerShadow"/>
</filter>
<filter id="filter7_i" x="352.091" y="475.384" width="43.8943" height="24.7952" filterUnits="userSpaceOnUse" color-interpolation-filters="sRGB">
<feFlood flood-opacity="0" result="BackgroundImageFix"/>
<feBlend mode="normal" in="SourceGraphic" in2="BackgroundImageFix" result="shape"/>
<feColorMatrix in="SourceAlpha" type="matrix" values="0 0 0 0 0 0 0 0 0 0 0 0 0 0 0 0 0 0 127 0" result="hardAlpha"/>
<feOffset dx="10"/>
<feGaussianBlur stdDeviation="3"/>
<feComposite in2="hardAlpha" operator="arithmetic" k2="-1" k3="1"/>
<feColorMatrix type="matrix" values="0 0 0 0 0 0 0 0 0 0 0 0 0 0 0 0 0 0 0.06 0"/>
<feBlend mode="normal" in2="shape" result="effect1_innerShadow"/>
</filter>
<filter id="filter8_i" x="294.76" y="475.384" width="43.8943" height="24.7952" filterUnits="userSpaceOnUse" color-interpolation-filters="sRGB">
<feFlood flood-opacity="0" result="BackgroundImageFix"/>
<feBlend mode="normal" in="SourceGraphic" in2="BackgroundImageFix" result="shape"/>
<feColorMatrix in="SourceAlpha" type="matrix" values="0 0 0 0 0 0 0 0 0 0 0 0 0 0 0 0 0 0 127 0" result="hardAlpha"/>
<feOffset dx="10"/>
<feGaussianBlur stdDeviation="3"/>
<feComposite in2="hardAlpha" operator="arithmetic" k2="-1" k3="1"/>
<feColorMatrix type="matrix" values="0 0 0 0 0 0 0 0 0 0 0 0 0 0 0 0 0 0 0.06 0"/>
<feBlend mode="normal" in2="shape" result="effect1_innerShadow"/>
</filter>
<filter id="filter9_i" x="331.248" y="670.11" width="178.784" height="182.269" filterUnits="userSpaceOnUse" color-interpolation-filters="sRGB">
<feFlood flood-opacity="0" result="BackgroundImageFix"/>
<feBlend mode="normal" in="SourceGraphic" in2="BackgroundImageFix" result="shape"/>
<feColorMatrix in="SourceAlpha" type="matrix" values="0 0 0 0 0 0 0 0 0 0 0 0 0 0 0 0 0 0 127 0" result="hardAlpha"/>
<feOffset dy="4"/>
<feGaussianBlur stdDeviation="2"/>
<feComposite in2="hardAlpha" operator="arithmetic" k2="-1" k3="1"/>
<feColorMatrix type="matrix" values="0 0 0 0 0 0 0 0 0 0 0 0 0 0 0 0 0 0 0.06 0"/>
<feBlend mode="normal" in2="shape" result="effect1_innerShadow"/>
</filter>
<filter id="filter10_i" x="331.248" y="670.11" width="184.784" height="183.269" filterUnits="userSpaceOnUse" color-interpolation-filters="sRGB">
<feFlood flood-opacity="0" result="BackgroundImageFix"/>
<feBlend mode="normal" in="SourceGraphic" in2="BackgroundImageFix" result="shape"/>
<feColorMatrix in="SourceAlpha" type="matrix" values="0 0 0 0 0 0 0 0 0 0 0 0 0 0 0 0 0 0 127 0" result="hardAlpha"/>
<feOffset dx="20" dy="5"/>
<feGaussianBlur stdDeviation="3"/>
<feComposite in2="hardAlpha" operator="arithmetic" k2="-1" k3="1"/>
<feColorMatrix type="matrix" values="0 0 0 0 0 0 0 0 0 0 0 0 0 0 0 0 0 0 0.06 0"/>
<feBlend mode="normal" in2="shape" result="effect1_innerShadow"/>
</filter>
<filter id="filter11_i" x="620.248" y="476.965" width="41.7819" height="79.2405" filterUnits="userSpaceOnUse" color-interpolation-filters="sRGB">
<feFlood flood-opacity="0" result="BackgroundImageFix"/>
<feBlend mode="normal" in="SourceGraphic" in2="BackgroundImageFix" result="shape"/>
<feColorMatrix in="SourceAlpha" type="matrix" values="0 0 0 0 0 0 0 0 0 0 0 0 0 0 0 0 0 0 127 0" result="hardAlpha"/>
<feOffset dy="4"/>
<feGaussianBlur stdDeviation="2"/>
<feComposite in2="hardAlpha" operator="arithmetic" k2="-1" k3="1"/>
<feColorMatrix type="matrix" values="0 0 0 0 0 0 0 0 0 0 0 0 0 0 0 0 0 0 0.06 0"/>
<feBlend mode="normal" in2="shape" result="effect1_innerShadow"/>
</filter>
<filter id="filter12_i" x="620.248" y="476.965" width="47.7819" height="78.2405" filterUnits="userSpaceOnUse" color-interpolation-filters="sRGB">
<feFlood flood-opacity="0" result="BackgroundImageFix"/>
<feBlend mode="normal" in="SourceGraphic" in2="BackgroundImageFix" result="shape"/>
<feColorMatrix in="SourceAlpha" type="matrix" values="0 0 0 0 0 0 0 0 0 0 0 0 0 0 0 0 0 0 127 0" result="hardAlpha"/>
<feOffset dx="10" dy="3"/>
<feGaussianBlur stdDeviation="3"/>
<feComposite in2="hardAlpha" operator="arithmetic" k2="-1" k3="1"/>
<feColorMatrix type="matrix" values="0 0 0 0 0 0 0 0 0 0 0 0 0 0 0 0 0 0 0.06 0"/>
<feBlend mode="normal" in2="shape" result="effect1_innerShadow"/>
</filter>
<linearGradient id="paint0_linear" x1="387" y1="0" x2="387" y2="1080" gradientUnits="userSpaceOnUse">
<stop stop-color="#9ACFFF"/>
<stop offset="0.333333" stop-color="#CBE6FF"/>
</linearGradient>
<linearGradient id="paint1_linear" x1="960" y1="0" x2="960" y2="1080" gradientUnits="userSpaceOnUse">
<stop stop-color="#9ACFFF"/>
<stop offset="0.333333" stop-color="#CBE6FF"/>
</linearGradient>
<clipPath id="clip0">
<rect width="774" height="1080" fill="white" transform="translate(1905)"/>
</clipPath>
<clipPath id="clip1">
<rect width="1920" height="1080" fill="white"/>
</clipPath>
</defs>
</svg>
