<svg width="974" height="670" viewBox="0 0 974 670" fill="none" xmlns="http://www.w3.org/2000/svg">
<path fill-rule="evenodd" clip-rule="evenodd" d="M877.854 100.583C877.974 97.8044 877.949 94.9978 877.772 92.1692C874.746 43.88 828.581 7.47297 774.66 10.8518C728.29 13.7575 691.285 45.1395 683.754 84.582C672.717 76.7609 658.484 72.471 643.227 73.427C610.49 75.4785 585.44 100.909 587.277 130.227C587.744 137.678 589.903 144.664 593.4 150.905C591.612 150.91 589.811 150.968 587.999 151.082C544.449 153.811 511.028 187.343 512.789 226.244L269.835 452.826L611.906 394.784C630.766 410.56 656.658 419.52 684.64 417.767C723.768 415.315 756.229 392.586 769.938 361.848C777.115 385.514 802.055 402.049 830.567 400.263C863.305 398.211 888.355 372.781 886.518 343.462C886.189 338.22 885.023 333.208 883.142 328.523C886.245 328.673 889.394 328.652 892.579 328.453C934.303 325.838 966.23 293.427 963.888 256.06C962.286 230.492 945.055 209.229 920.966 199.188C943.364 190.389 958.481 169.775 957.04 146.766C955.202 117.448 927.174 95.3435 894.436 97.3949C888.631 97.7587 883.068 98.8575 877.854 100.583ZM589.214 297.013C589.717 295.952 590.244 294.901 590.792 293.861C589.643 293.854 588.499 293.826 587.361 293.776L589.214 297.013Z" fill="#B9B9B9"/>
<path fill-rule="evenodd" clip-rule="evenodd" d="M877.854 100.583C877.974 97.8044 877.949 94.9978 877.772 92.1692C874.746 43.88 828.581 7.47297 774.66 10.8518C728.29 13.7575 691.285 45.1395 683.754 84.582C672.717 76.7609 658.484 72.471 643.227 73.427C610.49 75.4785 585.44 100.909 587.277 130.227C587.744 137.678 589.903 144.664 593.4 150.905C591.612 150.91 589.811 150.968 587.999 151.082C544.449 153.811 511.028 187.343 512.789 226.244L269.835 452.826L611.906 394.784C630.766 410.56 656.658 419.52 684.64 417.767C723.768 415.315 756.229 392.586 769.938 361.848C777.115 385.514 802.055 402.049 830.567 400.263C863.305 398.211 888.355 372.781 886.518 343.462C886.189 338.22 885.023 333.208 883.142 328.523C886.245 328.673 889.394 328.652 892.579 328.453C934.303 325.838 966.23 293.427 963.888 256.06C962.286 230.492 945.055 209.229 920.966 199.188C943.364 190.389 958.481 169.775 957.04 146.766C955.202 117.448 927.174 95.3435 894.436 97.3949C888.631 97.7587 883.068 98.8575 877.854 100.583ZM589.214 297.013C589.717 295.952 590.244 294.901 590.792 293.861C589.643 293.854 588.499 293.826 587.361 293.776L589.214 297.013Z" fill="url(#paint0_linear)"/>
<g filter="url(#filter0_i)">
<rect x="21.8867" y="548.711" width="21.721" height="21.3707" rx="10.6854" transform="rotate(-24.614 21.8867 548.711)" fill="#FFC600"/>
</g>
<g filter="url(#filter1_i)">
<path fill-rule="evenodd" clip-rule="evenodd" d="M113.076 579.189C113.043 579.118 112.956 579.089 112.887 579.127C111.773 579.733 110.63 580.305 109.459 580.841C81.666 593.574 48.8132 581.365 36.0803 553.572C23.3474 525.779 35.5562 492.926 63.3493 480.193C64.7917 479.532 66.2478 478.939 67.7139 478.411L300.69 389.144C319.529 381.926 340.734 390.585 349.137 408.926C357.478 427.132 350.36 448.689 332.818 458.349L113.264 579.252C113.195 579.29 113.108 579.261 113.076 579.189Z" fill="#7A5A3C"/>
</g>
<g filter="url(#filter2_i)">
<rect x="318.914" y="375.255" width="24.5238" height="86.5339" rx="12.2619" transform="rotate(-24.614 318.914 375.255)" fill="#FFC600"/>
</g>
<g filter="url(#filter3_i)">
<rect x="279.473" y="391.783" width="8.40815" height="89.6869" rx="4.20407" transform="rotate(-24.614 279.473 391.783)" fill="#FFC600"/>
</g>
<g filter="url(#filter4_i)">
<rect x="201.945" y="421.906" width="8.40815" height="101.949" rx="4.20407" transform="rotate(-24.614 201.945 421.906)" fill="#FFC600"/>
</g>
<g filter="url(#filter5_i)">
<rect x="72.6191" y="467.666" width="21.721" height="123.319" rx="10.8605" transform="rotate(-24.614 72.6191 467.666)" fill="#FFC600"/>
</g>
<g filter="url(#filter6_i)">
<path fill-rule="evenodd" clip-rule="evenodd" d="M235.169 554.85C235.169 538.281 221.737 524.85 205.169 524.85H171.978C155.41 524.85 141.978 538.281 141.978 554.85V565.05C141.978 581.618 128.547 595.05 111.978 595.05H90.3186C75.5082 595.05 63.502 607.056 63.502 621.866C63.502 636.677 75.5082 648.683 90.3186 648.683H286.477C301.288 648.683 313.294 636.677 313.294 621.866C313.294 607.056 301.288 595.05 286.477 595.05H265.169C248.6 595.05 235.169 581.618 235.169 565.05V554.85Z" fill="#CACACA"/>
</g>
<g filter="url(#filter7_i)">
<ellipse cx="105.725" cy="645.589" rx="26.1003" ry="23.9983" fill="#949494"/>
</g>
<g filter="url(#filter8_i)">
<ellipse cx="106.264" cy="645.962" rx="17.3418" ry="15.9404" fill="#CACACA"/>
</g>
<g filter="url(#filter9_i)">
<ellipse cx="270.223" cy="645.589" rx="26.1003" ry="23.9983" fill="#949494"/>
</g>
<g filter="url(#filter10_i)">
<ellipse cx="187.894" cy="530.623" rx="13.1377" ry="12.0867" fill="#949494"/>
</g>
<g filter="url(#filter11_i)">
<ellipse cx="270.223" cy="645.589" rx="17.3418" ry="15.9404" fill="#CACACA"/>
</g>
<g filter="url(#filter12_i)">
<ellipse cx="187.892" cy="530.623" rx="8.58332" ry="7.88264" fill="#CACACA"/>
</g>
<defs>
<filter id="filter0_i" x="25.3633" y="533.141" width="31.6944" height="31.5218" filterUnits="userSpaceOnUse" color-interpolation-filters="sRGB">
<feFlood flood-opacity="0" result="BackgroundImageFix"/>
<feBlend mode="normal" in="SourceGraphic" in2="BackgroundImageFix" result="shape"/>
<feColorMatrix in="SourceAlpha" type="matrix" values="0 0 0 0 0 0 0 0 0 0 0 0 0 0 0 0 0 0 127 0" result="hardAlpha"/>
<feOffset dx="15" dy="-30"/>
<feGaussianBlur stdDeviation="5"/>
<feComposite in2="hardAlpha" operator="arithmetic" k2="-1" k3="1"/>
<feColorMatrix type="matrix" values="0 0 0 0 0 0 0 0 0 0 0 0 0 0 0 0 0 0 0.1 0"/>
<feBlend mode="normal" in2="shape" result="effect1_innerShadow"/>
</filter>
<filter id="filter1_i" x="31.0371" y="376.604" width="331.581" height="209.279" filterUnits="userSpaceOnUse" color-interpolation-filters="sRGB">
<feFlood flood-opacity="0" result="BackgroundImageFix"/>
<feBlend mode="normal" in="SourceGraphic" in2="BackgroundImageFix" result="shape"/>
<feColorMatrix in="SourceAlpha" type="matrix" values="0 0 0 0 0 0 0 0 0 0 0 0 0 0 0 0 0 0 127 0" result="hardAlpha"/>
<feOffset dx="15" dy="-30"/>
<feGaussianBlur stdDeviation="5"/>
<feComposite in2="hardAlpha" operator="arithmetic" k2="-1" k3="1"/>
<feColorMatrix type="matrix" values="0 0 0 0 0 0 0 0 0 0 0 0 0 0 0 0 0 0 0.1 0"/>
<feBlend mode="normal" in2="shape" result="effect1_innerShadow"/>
</filter>
<filter id="filter2_i" x="322.904" y="359.03" width="60.3571" height="90.9052" filterUnits="userSpaceOnUse" color-interpolation-filters="sRGB">
<feFlood flood-opacity="0" result="BackgroundImageFix"/>
<feBlend mode="normal" in="SourceGraphic" in2="BackgroundImageFix" result="shape"/>
<feColorMatrix in="SourceAlpha" type="matrix" values="0 0 0 0 0 0 0 0 0 0 0 0 0 0 0 0 0 0 127 0" result="hardAlpha"/>
<feOffset dx="15" dy="-30"/>
<feGaussianBlur stdDeviation="5"/>
<feComposite in2="hardAlpha" operator="arithmetic" k2="-1" k3="1"/>
<feColorMatrix type="matrix" values="0 0 0 0 0 0 0 0 0 0 0 0 0 0 0 0 0 0 0.1 0"/>
<feBlend mode="normal" in2="shape" result="effect1_innerShadow"/>
</filter>
<filter id="filter3_i" x="280.84" y="379.649" width="52.263" height="92.3035" filterUnits="userSpaceOnUse" color-interpolation-filters="sRGB">
<feFlood flood-opacity="0" result="BackgroundImageFix"/>
<feBlend mode="normal" in="SourceGraphic" in2="BackgroundImageFix" result="shape"/>
<feColorMatrix in="SourceAlpha" type="matrix" values="0 0 0 0 0 0 0 0 0 0 0 0 0 0 0 0 0 0 127 0" result="hardAlpha"/>
<feOffset dx="15" dy="-30"/>
<feGaussianBlur stdDeviation="5"/>
<feComposite in2="hardAlpha" operator="arithmetic" k2="-1" k3="1"/>
<feColorMatrix type="matrix" values="0 0 0 0 0 0 0 0 0 0 0 0 0 0 0 0 0 0 0.1 0"/>
<feBlend mode="normal" in2="shape" result="effect1_innerShadow"/>
</filter>
<filter id="filter4_i" x="203.312" y="409.772" width="57.3701" height="103.451" filterUnits="userSpaceOnUse" color-interpolation-filters="sRGB">
<feFlood flood-opacity="0" result="BackgroundImageFix"/>
<feBlend mode="normal" in="SourceGraphic" in2="BackgroundImageFix" result="shape"/>
<feColorMatrix in="SourceAlpha" type="matrix" values="0 0 0 0 0 0 0 0 0 0 0 0 0 0 0 0 0 0 127 0" result="hardAlpha"/>
<feOffset dx="15" dy="-30"/>
<feGaussianBlur stdDeviation="5"/>
<feComposite in2="hardAlpha" operator="arithmetic" k2="-1" k3="1"/>
<feColorMatrix type="matrix" values="0 0 0 0 0 0 0 0 0 0 0 0 0 0 0 0 0 0 0.1 0"/>
<feBlend mode="normal" in2="shape" result="effect1_innerShadow"/>
</filter>
<filter id="filter5_i" x="76.1523" y="452.153" width="74.0423" height="124.093" filterUnits="userSpaceOnUse" color-interpolation-filters="sRGB">
<feFlood flood-opacity="0" result="BackgroundImageFix"/>
<feBlend mode="normal" in="SourceGraphic" in2="BackgroundImageFix" result="shape"/>
<feColorMatrix in="SourceAlpha" type="matrix" values="0 0 0 0 0 0 0 0 0 0 0 0 0 0 0 0 0 0 127 0" result="hardAlpha"/>
<feOffset dx="15" dy="-30"/>
<feGaussianBlur stdDeviation="5"/>
<feComposite in2="hardAlpha" operator="arithmetic" k2="-1" k3="1"/>
<feColorMatrix type="matrix" values="0 0 0 0 0 0 0 0 0 0 0 0 0 0 0 0 0 0 0.1 0"/>
<feBlend mode="normal" in2="shape" result="effect1_innerShadow"/>
</filter>
<filter id="filter6_i" x="63.502" y="524.85" width="259.792" height="133.833" filterUnits="userSpaceOnUse" color-interpolation-filters="sRGB">
<feFlood flood-opacity="0" result="BackgroundImageFix"/>
<feBlend mode="normal" in="SourceGraphic" in2="BackgroundImageFix" result="shape"/>
<feColorMatrix in="SourceAlpha" type="matrix" values="0 0 0 0 0 0 0 0 0 0 0 0 0 0 0 0 0 0 127 0" result="hardAlpha"/>
<feOffset dx="40" dy="20"/>
<feGaussianBlur stdDeviation="5"/>
<feComposite in2="hardAlpha" operator="arithmetic" k2="-1" k3="1"/>
<feColorMatrix type="matrix" values="0 0 0 0 0 0 0 0 0 0 0 0 0 0 0 0 0 0 0.06 0"/>
<feBlend mode="normal" in2="shape" result="effect1_innerShadow"/>
</filter>
<filter id="filter7_i" x="79.625" y="621.591" width="62.2006" height="57.9965" filterUnits="userSpaceOnUse" color-interpolation-filters="sRGB">
<feFlood flood-opacity="0" result="BackgroundImageFix"/>
<feBlend mode="normal" in="SourceGraphic" in2="BackgroundImageFix" result="shape"/>
<feColorMatrix in="SourceAlpha" type="matrix" values="0 0 0 0 0 0 0 0 0 0 0 0 0 0 0 0 0 0 127 0" result="hardAlpha"/>
<feOffset dx="20" dy="10"/>
<feGaussianBlur stdDeviation="5"/>
<feComposite in2="hardAlpha" operator="arithmetic" k2="-1" k3="1"/>
<feColorMatrix type="matrix" values="0 0 0 0 0 0 0 0 0 0 0 0 0 0 0 0 0 0 0.06 0"/>
<feBlend mode="normal" in2="shape" result="effect1_innerShadow"/>
</filter>
<filter id="filter8_i" x="88.9219" y="630.021" width="44.6836" height="41.8809" filterUnits="userSpaceOnUse" color-interpolation-filters="sRGB">
<feFlood flood-opacity="0" result="BackgroundImageFix"/>
<feBlend mode="normal" in="SourceGraphic" in2="BackgroundImageFix" result="shape"/>
<feColorMatrix in="SourceAlpha" type="matrix" values="0 0 0 0 0 0 0 0 0 0 0 0 0 0 0 0 0 0 127 0" result="hardAlpha"/>
<feOffset dx="20" dy="10"/>
<feGaussianBlur stdDeviation="5"/>
<feComposite in2="hardAlpha" operator="arithmetic" k2="-1" k3="1"/>
<feColorMatrix type="matrix" values="0 0 0 0 0 0 0 0 0 0 0 0 0 0 0 0 0 0 0.06 0"/>
<feBlend mode="normal" in2="shape" result="effect1_innerShadow"/>
</filter>
<filter id="filter9_i" x="244.123" y="621.591" width="62.2006" height="57.9965" filterUnits="userSpaceOnUse" color-interpolation-filters="sRGB">
<feFlood flood-opacity="0" result="BackgroundImageFix"/>
<feBlend mode="normal" in="SourceGraphic" in2="BackgroundImageFix" result="shape"/>
<feColorMatrix in="SourceAlpha" type="matrix" values="0 0 0 0 0 0 0 0 0 0 0 0 0 0 0 0 0 0 127 0" result="hardAlpha"/>
<feOffset dx="20" dy="10"/>
<feGaussianBlur stdDeviation="5"/>
<feComposite in2="hardAlpha" operator="arithmetic" k2="-1" k3="1"/>
<feColorMatrix type="matrix" values="0 0 0 0 0 0 0 0 0 0 0 0 0 0 0 0 0 0 0.06 0"/>
<feBlend mode="normal" in2="shape" result="effect1_innerShadow"/>
</filter>
<filter id="filter10_i" x="174.756" y="518.536" width="36.2755" height="34.1734" filterUnits="userSpaceOnUse" color-interpolation-filters="sRGB">
<feFlood flood-opacity="0" result="BackgroundImageFix"/>
<feBlend mode="normal" in="SourceGraphic" in2="BackgroundImageFix" result="shape"/>
<feColorMatrix in="SourceAlpha" type="matrix" values="0 0 0 0 0 0 0 0 0 0 0 0 0 0 0 0 0 0 127 0" result="hardAlpha"/>
<feOffset dx="20" dy="10"/>
<feGaussianBlur stdDeviation="5"/>
<feComposite in2="hardAlpha" operator="arithmetic" k2="-1" k3="1"/>
<feColorMatrix type="matrix" values="0 0 0 0 0 0 0 0 0 0 0 0 0 0 0 0 0 0 0.06 0"/>
<feBlend mode="normal" in2="shape" result="effect1_innerShadow"/>
</filter>
<filter id="filter11_i" x="252.881" y="629.648" width="44.6836" height="41.8809" filterUnits="userSpaceOnUse" color-interpolation-filters="sRGB">
<feFlood flood-opacity="0" result="BackgroundImageFix"/>
<feBlend mode="normal" in="SourceGraphic" in2="BackgroundImageFix" result="shape"/>
<feColorMatrix in="SourceAlpha" type="matrix" values="0 0 0 0 0 0 0 0 0 0 0 0 0 0 0 0 0 0 127 0" result="hardAlpha"/>
<feOffset dx="20" dy="10"/>
<feGaussianBlur stdDeviation="5"/>
<feComposite in2="hardAlpha" operator="arithmetic" k2="-1" k3="1"/>
<feColorMatrix type="matrix" values="0 0 0 0 0 0 0 0 0 0 0 0 0 0 0 0 0 0 0.06 0"/>
<feBlend mode="normal" in2="shape" result="effect1_innerShadow"/>
</filter>
<filter id="filter12_i" x="179.309" y="522.74" width="27.1666" height="25.7653" filterUnits="userSpaceOnUse" color-interpolation-filters="sRGB">
<feFlood flood-opacity="0" result="BackgroundImageFix"/>
<feBlend mode="normal" in="SourceGraphic" in2="BackgroundImageFix" result="shape"/>
<feColorMatrix in="SourceAlpha" type="matrix" values="0 0 0 0 0 0 0 0 0 0 0 0 0 0 0 0 0 0 127 0" result="hardAlpha"/>
<feOffset dx="20" dy="10"/>
<feGaussianBlur stdDeviation="5"/>
<feComposite in2="hardAlpha" operator="arithmetic" k2="-1" k3="1"/>
<feColorMatrix type="matrix" values="0 0 0 0 0 0 0 0 0 0 0 0 0 0 0 0 0 0 0.06 0"/>
<feBlend mode="normal" in2="shape" result="effect1_innerShadow"/>
</filter>
<linearGradient id="paint0_linear" x1="755.24" y1="151.658" x2="105.66" y2="622.238" gradientUnits="userSpaceOnUse">
<stop stop-color="white"/>
<stop offset="1" stop-color="#BABABA" stop-opacity="0"/>
</linearGradient>
</defs>
</svg>
