<svg width="2679" height="1080" viewBox="0 0 2679 1080" fill="none" xmlns="http://www.w3.org/2000/svg">
<g id="Background">
<g id="FINAL - Coming Soon Website" clip-path="url(#clip0)">
<g id="Cloud">
<circle id="Ellipse 63" cx="2488.87" cy="625.872" r="196.872" fill="#E2F1FF"/>
<circle id="Ellipse 65" cx="2886.67" cy="568.669" r="300.669" fill="#E2F1FF"/>
<path id="Ellipse 64" d="M2463 512.5C2463 683.984 2328.46 823 2162.5 823C1996.54 823 1862 683.984 1862 512.5C1862 341.016 1996.54 202 2162.5 202C2328.46 202 2463 341.016 2463 512.5Z" fill="#E2F1FF"/>
<path id="Ellipse 66" d="M1950.78 687.526C2287.51 902.965 1901.69 797.17 1841.14 797.17C1780.58 797.17 1731.49 748.081 1731.49 687.526C1731.49 626.971 1780.58 577.882 1841.14 577.882C1901.69 577.882 1950.78 626.971 1950.78 687.526Z" fill="#E2F1FF"/>
</g>
</g>
<g id="FINAL - Coming Soon Website_2" clip-path="url(#clip1)">
<g id="Group 10 cloud">
<circle id="Ellipse 63_2" cx="643.22" cy="583.292" r="196.872" fill="#E2F1FF"/>
<circle id="Ellipse 65_2" cx="1000.38" cy="536.669" r="300.669" fill="#E2F1FF"/>
<circle id="Ellipse 67" cx="1302.38" cy="706.308" r="174.605" fill="#E2F1FF"/>
<circle id="Ellipse 68" cx="1584" cy="604.925" r="185.87" fill="#E2F1FF"/>
<circle id="Ellipse 64_2" cx="262.637" cy="536.998" r="284.1" fill="#E2F1FF"/>
<path id="Ellipse 66_2" d="M45.7824 687.526C382.512 902.965 -3.30695 797.17 -63.8617 797.17C-124.417 797.17 -173.506 748.081 -173.506 687.526C-173.506 626.971 -124.417 577.882 -63.8617 577.882C-3.30695 577.882 45.7824 626.971 45.7824 687.526Z" fill="#E2F1FF"/>
<circle id="Ellipse 65_3" cx="1622.76" cy="916.858" r="300.669" fill="#E2F1FF"/>
<circle id="Ellipse 69" cx="1932.55" cy="629.604" r="300.669" fill="#E2F1FF"/>
</g>
</g>
</g>
<defs>
<clipPath id="clip0">
<rect width="774" height="1080" fill="white" transform="translate(1905)"/>
</clipPath>
<clipPath id="clip1">
<rect width="1920" height="1080" fill="white"/>
</clipPath>
</defs>
</svg>
