<svg width="2679" height="1080" viewBox="0 0 2679 1080" fill="none" xmlns="http://www.w3.org/2000/svg">
<g id="Background">
<g id="FINAL - Coming Soon Website" clip-path="url(#clip0)">
<g id="Green background">
<g id="Trees">
<path id="Polygon 2" d="M2256.92 659.059L2304.99 798.328H2208.84L2256.92 659.059Z" fill="#5FAF8D"/>
<path id="Polygon 5" d="M2159.18 671.429L2207.25 810.698H2111.11L2159.18 671.429Z" fill="#5FAF8D"/>
</g>
</g>
</g>
<g id="FINAL - Coming Soon Website_2" clip-path="url(#clip1)">
<g id="Green background_2">
<g id="Trees_2">
<path id="Polygon 1" d="M4.841 692.118L55.9815 857.84H-46.2995L4.841 692.118Z" fill="#5FAF8D"/>
<path id="Polygon 2_2" d="M361.265 650.059L409.337 789.328H313.193L361.265 650.059Z" fill="#5FAF8D"/>
<path id="Polygon 7" d="M855.246 627.792L903.762 802.213H806.73L855.246 627.792Z" fill="#5FAF8D"/>
<path id="Polygon 10" d="M850.321 867.347L898.393 1006.62H802.249L850.321 867.347Z" fill="#5FAF8D"/>
<path id="Polygon 8" d="M849.138 752.197L897.21 891.466H801.066L849.138 752.197Z" fill="#5FAF8D"/>
<path id="Polygon 9" d="M908.193 699.29L952.174 878.239H864.212L908.193 699.29Z" fill="#5FAF8D"/>
<path id="Polygon 3" d="M47.9041 706.24L95.9761 845.509H-0.167969L47.9041 706.24Z" fill="#5FAF8D"/>
<path id="Polygon 11" d="M1198.06 709.436L1242.04 865.822H1154.08L1198.06 709.436Z" fill="#5FAF8D"/>
<path id="Polygon 13" d="M1301.03 741.599L1345.42 897.464H1256.65L1301.03 741.599Z" fill="#5FAF8D"/>
<path id="Polygon 12" d="M1249.63 667.377L1319.69 838.546H1179.57L1249.63 667.377Z" fill="#5FAF8D"/>
<path id="Polygon 5_2" d="M263.526 662.429L311.598 801.698H215.454L263.526 662.429Z" fill="#5FAF8D"/>
<path id="Polygon 11_2" d="M1198.06 709.436L1242.04 865.822H1154.08L1198.06 709.436Z" fill="#5FAF8D"/>
<path id="Polygon 12_2" d="M1894.23 739L1938.21 895.386H1850.25L1894.23 739Z" fill="#5FAF8D"/>
<path id="Polygon 15" d="M1758.27 744.073L1802.25 900.459H1714.29L1758.27 744.073Z" fill="#5FAF8D"/>
<path id="Polygon 16" d="M1717.75 791.08L1761.73 947.466H1673.76L1717.75 791.08Z" fill="#5FAF8D"/>
<path id="Polygon 13_2" d="M1848.86 699.54L1892.84 855.926H1804.88L1848.86 699.54Z" fill="#5FAF8D"/>
<path id="Polygon 14" d="M1796.41 781.183L1840.39 937.569H1752.43L1796.41 781.183Z" fill="#5FAF8D"/>
</g>
</g>
</g>
</g>
<defs>
<clipPath id="clip0">
<rect width="774" height="1080" fill="white" transform="translate(1905)"/>
</clipPath>
<clipPath id="clip1">
<rect width="1920" height="1080" fill="white"/>
</clipPath>
</defs>
</svg>
