<svg width="2679" height="1080" viewBox="0 0 2679 1080" fill="none" xmlns="http://www.w3.org/2000/svg">
<g clip-path="url(#clip0)">
<circle cx="2488.87" cy="625.872" r="196.872" fill="#E2F1FF"/>
<circle cx="2886.67" cy="568.669" r="300.669" fill="#E2F1FF"/>
<path d="M2463 512.5C2463 683.984 2328.46 823 2162.5 823C1996.54 823 1862 683.984 1862 512.5C1862 341.016 1996.54 202 2162.5 202C2328.46 202 2463 341.016 2463 512.5Z" fill="#E2F1FF"/>
<path d="M1950.78 687.526C2287.51 902.965 1901.69 797.17 1841.14 797.17C1780.58 797.17 1731.49 748.081 1731.49 687.526C1731.49 626.971 1780.58 577.882 1841.14 577.882C1901.69 577.882 1950.78 626.971 1950.78 687.526Z" fill="#E2F1FF"/>
<path d="M1778.98 377.278C1785.39 359.782 1810.13 359.782 1816.54 377.278L1952.67 748.987C1957.45 762.038 1947.79 775.865 1933.89 775.865H1661.62C1647.73 775.865 1638.06 762.038 1642.84 748.987L1778.98 377.278Z" fill="#CACACA"/>
<path d="M2030.39 446.666C2038.29 434.575 2056.02 434.593 2063.89 446.699L2337.55 867.149C2346.21 880.453 2336.66 898.059 2320.79 898.059H1772.3C1756.41 898.059 1746.86 880.418 1755.56 867.116L2030.39 446.666Z" fill="#CACACA"/>
<path d="M2308.47 527.845C2315.4 511.692 2338.3 511.692 2345.23 527.845L2522.73 941.615C2528.39 954.813 2518.71 969.5 2504.35 969.5H2149.34C2134.98 969.5 2125.3 954.813 2130.96 941.615L2308.47 527.845Z" fill="#CACACA"/>
<path d="M2569.16 316.104C2576.5 301.71 2596.99 301.499 2604.61 315.738L2890.61 849.555C2897.75 862.878 2888.1 879 2872.98 879H2315.02C2300.09 879 2290.42 863.227 2297.2 849.921L2569.16 316.104Z" fill="#CACACA"/>
<path d="M2308.47 527.845C2315.4 511.692 2338.3 511.692 2345.23 527.845L2522.73 941.615C2528.39 954.813 2518.71 969.5 2504.35 969.5H2149.34C2134.98 969.5 2125.3 954.813 2130.96 941.615L2308.47 527.845Z" fill="#CACACA"/>
<path fill-rule="evenodd" clip-rule="evenodd" d="M2274.07 608.014C2278.1 603.486 2282.09 599.963 2285 600.5C2292.74 601.931 2296.21 608.823 2299.28 614.934C2301.96 620.264 2304.34 625 2309 625C2313.58 625 2315.64 618.367 2317.97 610.851C2320.73 601.97 2323.86 591.858 2332 590C2339.06 588.389 2341.23 595.084 2343.36 601.648C2345.49 608.225 2347.58 614.671 2354.5 612.5C2360.09 610.746 2361.12 605.884 2362.14 601.088C2363.18 596.207 2364.2 591.395 2370 590C2370.61 589.854 2371.2 589.782 2371.79 589.776L2345.23 527.845C2338.3 511.692 2315.4 511.692 2308.47 527.845L2274.07 608.014Z" fill="#FEFEFF"/>
<path fill-rule="evenodd" clip-rule="evenodd" d="M1948.36 572.166C1952.04 570.163 1958.66 563.137 1965.92 555.439C1977.09 543.588 1989.77 530.147 1995.5 531C2005.21 532.444 2006.33 547.593 2007.33 561.327C2008.2 573.065 2008.98 583.769 2015 584C2021.04 584.231 2023.49 575.335 2026.23 565.373C2029.4 553.823 2032.97 540.842 2043 539C2051.72 537.398 2057.41 544.378 2063.03 551.279C2068.72 558.269 2074.35 565.177 2083 562.995C2089.93 561.245 2091.36 557.623 2092.76 554.074C2094.2 550.446 2095.6 546.893 2102.82 545.495C2112.08 543.702 2128.71 554.809 2139.8 563.322L2063.89 446.698C2056.01 434.593 2038.29 434.575 2030.39 446.666L1948.36 572.166Z" fill="#FEFEFF"/>
<path fill-rule="evenodd" clip-rule="evenodd" d="M2491.58 468.393L2569.16 316.104C2576.5 301.71 2596.98 301.499 2604.61 315.738L2683.15 462.334C2671.76 453.084 2658.36 444.052 2650.87 445.5C2643.69 446.891 2643.09 456.985 2642.49 467.129C2641.9 477.161 2641.31 487.241 2634.33 489C2625.7 491.179 2616.8 477.865 2607.85 464.482C2598.98 451.222 2590.07 437.895 2581.33 439.5C2571.37 441.33 2565.79 455.435 2560.77 468.123C2556.39 479.22 2552.42 489.233 2546.33 489C2540.22 488.766 2536.12 481.666 2531.63 473.905C2526.54 465.091 2520.95 455.425 2511.37 454C2507.01 453.351 2499.33 460.335 2491.58 468.393Z" fill="#FEFEFF"/>
<path d="M1842.44 843C2478.75 480.155 3516.29 1050.35 3846.29 789V1158.49L1863.53 1158.49L1842.44 843Z" fill="#E2E2E2"/>
<path d="M1911.44 992.5C2486.38 1150.5 2573.84 757.051 3472.03 934.278C4370.22 1111.51 3701.87 1314.72 3701.87 1314.72L1718.12 1314.72C1718.12 1314.72 1336.5 834.5 1911.44 992.5Z" fill="#F4F4F4"/>
</g>
<g clip-path="url(#clip1)">
<circle cx="643.22" cy="583.292" r="196.872" fill="#E2F1FF"/>
<circle cx="1000.38" cy="536.669" r="300.669" fill="#E2F1FF"/>
<circle cx="1302.38" cy="706.308" r="174.605" fill="#E2F1FF"/>
<circle cx="1584" cy="604.925" r="185.87" fill="#E2F1FF"/>
<circle cx="262.637" cy="536.998" r="284.1" fill="#E2F1FF"/>
<path d="M45.7824 687.526C382.512 902.965 -3.30695 797.17 -63.8617 797.17C-124.417 797.17 -173.506 748.081 -173.506 687.526C-173.506 626.971 -124.417 577.882 -63.8617 577.882C-3.30695 577.882 45.7824 626.971 45.7824 687.526Z" fill="#E2F1FF"/>
<circle cx="1622.76" cy="916.858" r="300.669" fill="#E2F1FF"/>
<circle cx="1932.55" cy="629.604" r="300.669" fill="#E2F1FF"/>
<path d="M-131.021 324.278C-124.613 306.782 -99.8687 306.782 -93.4609 324.278L42.6741 695.987C47.4539 709.038 37.7928 722.865 23.894 722.865H-248.376C-262.275 722.865 -271.936 709.038 -267.156 695.987L-131.021 324.278Z" fill="#CACACA"/>
<path d="M120.391 393.666C128.294 381.575 146.015 381.593 153.894 393.699L427.55 814.149C436.209 827.453 426.662 845.059 410.788 845.059H-137.702C-153.594 845.059 -163.138 827.418 -154.443 814.116L120.391 393.666Z" fill="#CACACA"/>
<path d="M-131.021 324.278C-124.613 306.782 -99.8687 306.782 -93.4609 324.278L42.6741 695.987C47.4539 709.038 37.7928 722.865 23.894 722.865H-248.376C-262.275 722.865 -271.936 709.038 -267.156 695.987L-131.021 324.278Z" fill="#CACACA"/>
<path d="M398.466 474.845C405.396 458.692 428.297 458.692 435.226 474.845L612.73 888.615C618.392 901.813 608.711 916.5 594.35 916.5H239.342C224.981 916.5 215.3 901.813 220.962 888.615L398.466 474.845Z" fill="#CACACA"/>
<path d="M659.164 263.104C666.497 248.71 686.986 248.499 694.614 262.738L980.61 796.555C987.748 809.878 978.095 826 962.98 826H405.02C390.087 826 380.421 810.227 387.2 796.921L659.164 263.104Z" fill="#CACACA"/>
<path d="M398.466 474.845C405.396 458.692 428.297 458.692 435.226 474.845L612.73 888.615C618.392 901.813 608.711 916.5 594.35 916.5H239.342C224.981 916.5 215.3 901.813 220.962 888.615L398.466 474.845Z" fill="#CACACA"/>
<path fill-rule="evenodd" clip-rule="evenodd" d="M364.074 555.014C368.099 550.486 372.093 546.963 375 547.5C382.74 548.931 386.206 555.823 389.279 561.934C391.959 567.264 394.341 572 399 572C403.584 572 405.641 565.367 407.972 557.851C410.727 548.97 413.863 538.858 422 537C429.056 535.389 431.227 542.084 433.357 548.648C435.49 555.225 437.581 561.671 444.5 559.5C450.09 557.746 451.123 552.884 452.143 548.088C453.18 543.207 454.203 538.395 460 537C460.606 536.854 461.204 536.782 461.794 536.776L435.226 474.845C428.296 458.692 405.396 458.692 398.466 474.845L364.074 555.014Z" fill="#FEFEFF"/>
<path fill-rule="evenodd" clip-rule="evenodd" d="M38.3564 519.166C42.0365 517.163 48.6613 510.137 55.9187 502.439C67.0926 490.588 79.7661 477.147 85.5007 478C95.2131 479.444 96.3265 494.593 97.3359 508.327C98.1987 520.065 98.9854 530.769 105 531C111.045 531.231 113.49 522.335 116.229 512.373C119.404 500.823 122.972 487.842 133 486C141.723 484.398 147.409 491.378 153.03 498.279C158.725 505.269 164.352 512.177 173 509.995C179.933 508.245 181.364 504.623 182.765 501.074C184.198 497.446 185.601 493.893 192.824 492.495C202.084 490.702 218.71 501.809 229.801 510.322L153.895 393.698C146.016 381.593 128.295 381.575 120.392 393.666L38.3564 519.166Z" fill="#FEFEFF"/>
<path fill-rule="evenodd" clip-rule="evenodd" d="M581.577 415.393L659.164 263.104C666.497 248.71 686.985 248.499 694.614 262.738L773.153 409.334C761.762 400.084 748.357 391.052 740.874 392.5C733.691 393.891 733.095 403.985 732.495 414.129C731.902 424.161 731.307 434.241 724.336 436C715.703 438.179 706.801 424.865 697.852 411.482C688.986 398.222 680.074 384.895 671.336 386.5C661.373 388.33 655.794 402.435 650.776 415.123C646.386 426.22 642.426 436.233 636.336 436C630.224 435.766 626.12 428.666 621.635 420.905C616.54 412.091 610.953 402.425 601.374 401C597.009 400.351 589.332 407.335 581.577 415.393Z" fill="#FEFEFF"/>
<path d="M953.979 416.278C960.387 398.782 985.131 398.782 991.539 416.278L1127.67 787.987C1132.45 801.038 1122.79 814.865 1108.89 814.865H836.624C822.725 814.865 813.064 801.038 817.844 787.987L953.979 416.278Z" fill="#CACACA"/>
<path d="M1205.39 485.666C1213.29 473.575 1231.02 473.593 1238.89 485.699L1512.55 906.149C1521.21 919.453 1511.66 937.059 1495.79 937.059H947.298C931.406 937.059 921.862 919.418 930.557 906.116L1205.39 485.666Z" fill="#CACACA"/>
<path d="M953.979 416.278C960.387 398.782 985.131 398.782 991.539 416.278L1127.67 787.987C1132.45 801.038 1122.79 814.865 1108.89 814.865H836.624C822.725 814.865 813.064 801.038 817.844 787.987L953.979 416.278Z" fill="#CACACA"/>
<path d="M1483.47 566.845C1490.4 550.692 1513.3 550.692 1520.23 566.845L1697.73 980.615C1703.39 993.813 1693.71 1008.5 1679.35 1008.5H1324.34C1309.98 1008.5 1300.3 993.813 1305.96 980.615L1483.47 566.845Z" fill="#CACACA"/>
<path d="M1744.16 355.104C1751.5 340.71 1771.99 340.499 1779.61 354.738L2065.61 888.555C2072.75 901.878 2063.1 918 2047.98 918H1490.02C1475.09 918 1465.42 902.227 1472.2 888.921L1744.16 355.104Z" fill="#CACACA"/>
<path d="M1483.47 566.845C1490.4 550.692 1513.3 550.692 1520.23 566.845L1697.73 980.615C1703.39 993.813 1693.71 1008.5 1679.35 1008.5H1324.34C1309.98 1008.5 1300.3 993.813 1305.96 980.615L1483.47 566.845Z" fill="#CACACA"/>
<path fill-rule="evenodd" clip-rule="evenodd" d="M915.246 522.031L953.977 416.278C960.385 398.782 985.13 398.782 991.537 416.278L1027.87 515.477C1023.2 511.48 1017.59 508.273 1012.39 509.524C1006.6 510.919 1005.57 516.615 1004.53 522.374C1003.51 528.041 1002.48 533.77 996.889 535.524C989.939 537.705 986.091 531.191 982.188 524.583C978.327 518.048 974.413 511.421 967.389 513.024C959.236 514.886 958.606 525.622 958.058 534.974C957.596 542.855 957.191 549.753 952.389 549.524C947.516 549.292 945.98 542.961 944.284 535.974C942.326 527.904 940.155 518.96 932.389 517.524C926.971 516.523 920.312 519.247 915.246 522.031Z" fill="#FEFEFF"/>
<path fill-rule="evenodd" clip-rule="evenodd" d="M1449.07 647.014C1453.1 642.486 1457.09 638.963 1460 639.5C1467.74 640.931 1471.21 647.823 1474.28 653.934C1476.96 659.264 1479.34 664 1484 664C1488.58 664 1490.64 657.367 1492.97 649.851C1495.73 640.97 1498.86 630.858 1507 629C1514.06 627.389 1516.23 634.084 1518.36 640.648C1520.49 647.225 1522.58 653.671 1529.5 651.5C1535.09 649.746 1536.12 644.884 1537.14 640.088C1538.18 635.207 1539.2 630.395 1545 629C1545.61 628.854 1546.2 628.782 1546.79 628.776L1520.23 566.845C1513.3 550.692 1490.4 550.692 1483.47 566.845L1449.07 647.014Z" fill="#FEFEFF"/>
<path fill-rule="evenodd" clip-rule="evenodd" d="M1123.36 611.166C1127.04 609.163 1133.66 602.137 1140.92 594.439C1152.09 582.588 1164.77 569.147 1170.5 570C1180.21 571.444 1181.33 586.593 1182.33 600.327C1183.2 612.065 1183.98 622.769 1190 623C1196.04 623.231 1198.49 614.335 1201.23 604.373C1204.4 592.823 1207.97 579.842 1218 578C1226.72 576.398 1232.41 583.378 1238.03 590.279C1243.72 597.269 1249.35 604.177 1258 601.995C1264.93 600.245 1266.36 596.623 1267.76 593.074C1269.2 589.446 1270.6 585.893 1277.82 584.495C1287.08 582.702 1303.71 593.809 1314.8 602.322L1238.89 485.698C1231.01 473.593 1213.29 473.575 1205.39 485.666L1123.36 611.166Z" fill="#FEFEFF"/>
<path fill-rule="evenodd" clip-rule="evenodd" d="M1666.58 507.393L1744.16 355.104C1751.5 340.71 1771.98 340.499 1779.61 354.738L1858.15 501.334C1846.76 492.084 1833.36 483.052 1825.87 484.5C1818.69 485.891 1818.09 495.985 1817.49 506.129C1816.9 516.161 1816.31 526.241 1809.33 528C1800.7 530.179 1791.8 516.865 1782.85 503.482C1773.98 490.222 1765.07 476.895 1756.33 478.5C1746.37 480.33 1740.79 494.435 1735.77 507.123C1731.39 518.22 1727.42 528.233 1721.33 528C1715.22 527.766 1711.12 520.666 1706.63 512.905C1701.54 504.091 1695.95 494.425 1686.37 493C1682.01 492.351 1674.33 499.335 1666.58 507.393Z" fill="#FEFEFF"/>
<path d="M-54.2109 833.769C582.094 470.924 1620.64 1044.15 1950.64 782.799V1152.29L-32.127 1152.29L-54.2109 833.769Z" fill="#E2E2E2"/>
<path d="M209.941 925.5C773.89 1139.11 807.481 765.333 1705.67 942.56C2603.86 1119.79 1680.5 1323 1680.5 1323H-48.2475C-48.2475 1323 -354.008 711.892 209.941 925.5Z" fill="#F4F4F4"/>
</g>
<defs>
<clipPath id="clip0">
<rect width="774" height="1080" fill="white" transform="translate(1905)"/>
</clipPath>
<clipPath id="clip1">
<rect width="1920" height="1080" fill="white"/>
</clipPath>
</defs>
</svg>
