<svg width="2679" height="1080" viewBox="0 0 2679 1080" fill="none" xmlns="http://www.w3.org/2000/svg">
<g clip-path="url(#clip0)">
<circle cx="1930.5" cy="782.5" r="5.5" fill="white"/>
<circle cx="1983.5" cy="533.5" r="5.5" fill="white"/>
<circle cx="1972.5" cy="100.5" r="5.5" fill="white"/>
<circle cx="2039" cy="69" r="3" fill="white"/>
<circle cx="1961" cy="213" r="3" fill="white"/>
<circle cx="1921" cy="375" r="3" fill="white"/>
<circle cx="2042" cy="474" r="3" fill="white"/>
<circle cx="1964" cy="618" r="3" fill="white"/>
<circle cx="1924" cy="780" r="3" fill="white"/>
<circle cx="1933" cy="1048" r="3" fill="white"/>
<circle cx="2086" cy="739" r="3" fill="white"/>
<circle cx="2008" cy="883" r="3" fill="white"/>
<circle cx="1968" cy="1045" r="3" fill="white"/>
<circle cx="1909" cy="747" r="3" fill="white"/>
<circle cx="2308" cy="88" r="3" fill="white"/>
<circle cx="2305.5" cy="153.5" r="5.5" fill="white"/>
<circle cx="2091.5" cy="450.5" r="5.5" fill="white"/>
<circle cx="2139.5" cy="717.5" r="5.5" fill="white"/>
<circle cx="2596.5" cy="547.5" r="5.5" fill="white"/>
<circle cx="2216.5" cy="458.5" r="5.5" fill="white"/>
<circle cx="2405.5" cy="432.5" r="5.5" fill="white"/>
<circle cx="2044.5" cy="300.5" r="5.5" fill="white"/>
<circle cx="2494.5" cy="203.5" r="5.5" fill="white"/>
<circle cx="2405.5" cy="67.5" r="5.5" fill="white"/>
<circle cx="2124.5" cy="87.5" r="5.5" fill="white"/>
<circle cx="2301.5" cy="271.5" r="5.5" fill="white"/>
<circle cx="2375" cy="329" r="3" fill="white"/>
<circle cx="2480" cy="377" r="3" fill="white"/>
<circle cx="2033" cy="388" r="3" fill="white"/>
<circle cx="2181" cy="388" r="3" fill="white"/>
<circle cx="2305" cy="387" r="3" fill="white"/>
<circle cx="2145" cy="278" r="3" fill="white"/>
<circle cx="2089" cy="343" r="3" fill="white"/>
<circle cx="2071" cy="44" r="3" fill="white"/>
<circle cx="2039" cy="111" r="3" fill="white"/>
<circle cx="2632" cy="99" r="3" fill="white"/>
<circle cx="2555" cy="212" r="3" fill="white"/>
<circle cx="2231" cy="127" r="3" fill="white"/>
<circle cx="2515" cy="374" r="3" fill="white"/>
<circle cx="2456" cy="76" r="3" fill="white"/>
<circle cx="2177" cy="62" r="3" fill="white"/>
<circle cx="2225" cy="232" r="3" fill="white"/>
<circle cx="2385" cy="151" r="3" fill="white"/>
<circle cx="2494" cy="382" r="3" fill="white"/>
<circle cx="2642" cy="382" r="3" fill="white"/>
<circle cx="2606" cy="272" r="3" fill="white"/>
<circle cx="2550" cy="337" r="3" fill="white"/>
<circle cx="2532" cy="38" r="3" fill="white"/>
<circle cx="2500" cy="105" r="3" fill="white"/>
<circle cx="2638" cy="56" r="3" fill="white"/>
<circle cx="2497" cy="787" r="3" fill="white"/>
<circle cx="2645" cy="787" r="3" fill="white"/>
<circle cx="2609" cy="677" r="3" fill="white"/>
<circle cx="2553" cy="742" r="3" fill="white"/>
<circle cx="2535" cy="443" r="3" fill="white"/>
<circle cx="2503" cy="510" r="3" fill="white"/>
<circle cx="2641" cy="461" r="3" fill="white"/>
<circle cx="2184" cy="568" r="3" fill="white"/>
<circle cx="2251" cy="809" r="3" fill="white"/>
<circle cx="2356" cy="857" r="3" fill="white"/>
<circle cx="1909" cy="868" r="3" fill="white"/>
<circle cx="2057" cy="868" r="3" fill="white"/>
<circle cx="2181" cy="867" r="3" fill="white"/>
<circle cx="2021" cy="758" r="3" fill="white"/>
<circle cx="1965" cy="823" r="3" fill="white"/>
<circle cx="1947" cy="524" r="3" fill="white"/>
<circle cx="1915" cy="591" r="3" fill="white"/>
<circle cx="2509" cy="548" r="3" fill="white"/>
<circle cx="2431" cy="692" r="3" fill="white"/>
<circle cx="2107" cy="607" r="3" fill="white"/>
<circle cx="2391" cy="854" r="3" fill="white"/>
<circle cx="2332" cy="556" r="3" fill="white"/>
<circle cx="2053" cy="542" r="3" fill="white"/>
<circle cx="2101" cy="712" r="3" fill="white"/>
<circle cx="2261" cy="631" r="3" fill="white"/>
<circle cx="2541" cy="1052" r="3" fill="white"/>
<circle cx="2653" cy="942" r="3" fill="white"/>
<circle cx="2597" cy="1007" r="3" fill="white"/>
<circle cx="2579" cy="708" r="3" fill="white"/>
<circle cx="2547" cy="775" r="3" fill="white"/>
<circle cx="2018" cy="232" r="3" fill="white"/>
</g>
<g clip-path="url(#clip1)">
<circle cx="289" cy="87" r="3" fill="white"/>
<circle cx="286.5" cy="152.5" r="5.5" fill="white"/>
<circle cx="72.5" cy="449.5" r="5.5" fill="white"/>
<circle cx="966.5" cy="774.5" r="5.5" fill="white"/>
<circle cx="1019.5" cy="525.5" r="5.5" fill="white"/>
<circle cx="747.5" cy="641.5" r="5.5" fill="white"/>
<circle cx="1008.5" cy="92.5" r="5.5" fill="white"/>
<circle cx="120.5" cy="716.5" r="5.5" fill="white"/>
<circle cx="577.5" cy="546.5" r="5.5" fill="white"/>
<circle cx="919.5" cy="246.5" r="5.5" fill="white"/>
<circle cx="840.5" cy="52.5" r="5.5" fill="white"/>
<circle cx="197.5" cy="457.5" r="5.5" fill="white"/>
<circle cx="386.5" cy="431.5" r="5.5" fill="white"/>
<circle cx="25.5" cy="299.5" r="5.5" fill="white"/>
<circle cx="750.5" cy="183.5" r="5.5" fill="white"/>
<circle cx="674.5" cy="55.5" r="5.5" fill="white"/>
<circle cx="475.5" cy="202.5" r="5.5" fill="white"/>
<circle cx="386.5" cy="66.5" r="5.5" fill="white"/>
<circle cx="105.5" cy="86.5" r="5.5" fill="white"/>
<circle cx="282.5" cy="270.5" r="5.5" fill="white"/>
<circle cx="356" cy="328" r="3" fill="white"/>
<circle cx="461" cy="376" r="3" fill="white"/>
<circle cx="14" cy="387" r="3" fill="white"/>
<circle cx="162" cy="387" r="3" fill="white"/>
<circle cx="286" cy="386" r="3" fill="white"/>
<circle cx="126" cy="277" r="3" fill="white"/>
<circle cx="70" cy="342" r="3" fill="white"/>
<circle cx="52" cy="43" r="3" fill="white"/>
<circle cx="20" cy="110" r="3" fill="white"/>
<circle cx="613" cy="98" r="3" fill="white"/>
<circle cx="536" cy="211" r="3" fill="white"/>
<circle cx="212" cy="126" r="3" fill="white"/>
<circle cx="496" cy="373" r="3" fill="white"/>
<circle cx="437" cy="75" r="3" fill="white"/>
<circle cx="158" cy="61" r="3" fill="white"/>
<circle cx="206" cy="231" r="3" fill="white"/>
<circle cx="366" cy="150" r="3" fill="white"/>
<circle cx="750" cy="81" r="3" fill="white"/>
<circle cx="817" cy="322" r="3" fill="white"/>
<circle cx="922" cy="370" r="3" fill="white"/>
<circle cx="475" cy="381" r="3" fill="white"/>
<circle cx="623" cy="381" r="3" fill="white"/>
<circle cx="747" cy="380" r="3" fill="white"/>
<circle cx="587" cy="271" r="3" fill="white"/>
<circle cx="531" cy="336" r="3" fill="white"/>
<circle cx="513" cy="37" r="3" fill="white"/>
<circle cx="481" cy="104" r="3" fill="white"/>
<circle cx="1075" cy="61" r="3" fill="white"/>
<circle cx="997" cy="205" r="3" fill="white"/>
<circle cx="673" cy="120" r="3" fill="white"/>
<circle cx="957" cy="367" r="3" fill="white"/>
<circle cx="898" cy="69" r="3" fill="white"/>
<circle cx="619" cy="55" r="3" fill="white"/>
<circle cx="667" cy="225" r="3" fill="white"/>
<circle cx="827" cy="144" r="3" fill="white"/>
<circle cx="753" cy="486" r="3" fill="white"/>
<circle cx="820" cy="727" r="3" fill="white"/>
<circle cx="925" cy="775" r="3" fill="white"/>
<circle cx="478" cy="786" r="3" fill="white"/>
<circle cx="626" cy="786" r="3" fill="white"/>
<circle cx="750" cy="785" r="3" fill="white"/>
<circle cx="590" cy="676" r="3" fill="white"/>
<circle cx="534" cy="741" r="3" fill="white"/>
<circle cx="516" cy="442" r="3" fill="white"/>
<circle cx="484" cy="509" r="3" fill="white"/>
<circle cx="1078" cy="466" r="3" fill="white"/>
<circle cx="1000" cy="610" r="3" fill="white"/>
<circle cx="676" cy="525" r="3" fill="white"/>
<circle cx="960" cy="772" r="3" fill="white"/>
<circle cx="901" cy="474" r="3" fill="white"/>
<circle cx="622" cy="460" r="3" fill="white"/>
<circle cx="670" cy="630" r="3" fill="white"/>
<circle cx="830" cy="549" r="3" fill="white"/>
<circle cx="165" cy="567" r="3" fill="white"/>
<circle cx="232" cy="808" r="3" fill="white"/>
<circle cx="337" cy="856" r="3" fill="white"/>
<circle cx="38" cy="867" r="3" fill="white"/>
<circle cx="162" cy="866" r="3" fill="white"/>
<circle cx="2" cy="757" r="3" fill="white"/>
<circle cx="490" cy="547" r="3" fill="white"/>
<circle cx="412" cy="691" r="3" fill="white"/>
<circle cx="88" cy="606" r="3" fill="white"/>
<circle cx="372" cy="853" r="3" fill="white"/>
<circle cx="313" cy="555" r="3" fill="white"/>
<circle cx="34" cy="541" r="3" fill="white"/>
<circle cx="82" cy="711" r="3" fill="white"/>
<circle cx="242" cy="630" r="3" fill="white"/>
<circle cx="797" cy="751" r="3" fill="white"/>
<circle cx="864" cy="992" r="3" fill="white"/>
<circle cx="969" cy="1040" r="3" fill="white"/>
<circle cx="522" cy="1051" r="3" fill="white"/>
<circle cx="670" cy="1051" r="3" fill="white"/>
<circle cx="794" cy="1050" r="3" fill="white"/>
<circle cx="634" cy="941" r="3" fill="white"/>
<circle cx="578" cy="1006" r="3" fill="white"/>
<circle cx="560" cy="707" r="3" fill="white"/>
<circle cx="528" cy="774" r="3" fill="white"/>
<circle cx="1122" cy="731" r="3" fill="white"/>
<circle cx="1044" cy="875" r="3" fill="white"/>
<circle cx="720" cy="790" r="3" fill="white"/>
<circle cx="1004" cy="1037" r="3" fill="white"/>
<circle cx="945" cy="739" r="3" fill="white"/>
<circle cx="666" cy="725" r="3" fill="white"/>
<circle cx="714" cy="895" r="3" fill="white"/>
<circle cx="-1" cy="231" r="3" fill="white"/>
<circle cx="874" cy="814" r="3" fill="white"/>
<circle cx="1316" cy="144" r="3" fill="white"/>
<circle cx="1313.5" cy="209.5" r="5.5" fill="white"/>
<circle cx="1099.5" cy="506.5" r="5.5" fill="white"/>
<circle cx="1774.5" cy="698.5" r="5.5" fill="white"/>
<circle cx="1147.5" cy="773.5" r="5.5" fill="white"/>
<circle cx="1604.5" cy="603.5" r="5.5" fill="white"/>
<circle cx="1867.5" cy="109.5" r="5.5" fill="white"/>
<circle cx="1224.5" cy="514.5" r="5.5" fill="white"/>
<circle cx="1413.5" cy="488.5" r="5.5" fill="white"/>
<circle cx="1052.5" cy="356.5" r="5.5" fill="white"/>
<circle cx="1777.5" cy="240.5" r="5.5" fill="white"/>
<circle cx="1701.5" cy="112.5" r="5.5" fill="white"/>
<circle cx="1502.5" cy="259.5" r="5.5" fill="white"/>
<circle cx="1413.5" cy="123.5" r="5.5" fill="white"/>
<circle cx="1132.5" cy="143.5" r="5.5" fill="white"/>
<circle cx="1309.5" cy="327.5" r="5.5" fill="white"/>
<circle cx="1383" cy="385" r="3" fill="white"/>
<circle cx="1488" cy="433" r="3" fill="white"/>
<circle cx="1041" cy="444" r="3" fill="white"/>
<circle cx="1189" cy="444" r="3" fill="white"/>
<circle cx="1313" cy="443" r="3" fill="white"/>
<circle cx="1153" cy="334" r="3" fill="white"/>
<circle cx="1097" cy="399" r="3" fill="white"/>
<circle cx="1079" cy="100" r="3" fill="white"/>
<circle cx="1047" cy="167" r="3" fill="white"/>
<circle cx="1640" cy="155" r="3" fill="white"/>
<circle cx="1563" cy="268" r="3" fill="white"/>
<circle cx="1239" cy="183" r="3" fill="white"/>
<circle cx="1523" cy="430" r="3" fill="white"/>
<circle cx="1464" cy="132" r="3" fill="white"/>
<circle cx="1185" cy="118" r="3" fill="white"/>
<circle cx="1233" cy="288" r="3" fill="white"/>
<circle cx="1393" cy="207" r="3" fill="white"/>
<circle cx="1777" cy="138" r="3" fill="white"/>
<circle cx="1844" cy="379" r="3" fill="white"/>
<circle cx="1502" cy="438" r="3" fill="white"/>
<circle cx="1650" cy="438" r="3" fill="white"/>
<circle cx="1774" cy="437" r="3" fill="white"/>
<circle cx="1614" cy="328" r="3" fill="white"/>
<circle cx="1558" cy="393" r="3" fill="white"/>
<circle cx="1540" cy="94" r="3" fill="white"/>
<circle cx="1508" cy="161" r="3" fill="white"/>
<circle cx="1700" cy="177" r="3" fill="white"/>
<circle cx="1646" cy="112" r="3" fill="white"/>
<circle cx="1694" cy="282" r="3" fill="white"/>
<circle cx="1854" cy="201" r="3" fill="white"/>
<circle cx="1780" cy="543" r="3" fill="white"/>
<circle cx="1847" cy="784" r="3" fill="white"/>
<circle cx="1505" cy="843" r="3" fill="white"/>
<circle cx="1653" cy="843" r="3" fill="white"/>
<circle cx="1777" cy="842" r="3" fill="white"/>
<circle cx="1617" cy="733" r="3" fill="white"/>
<circle cx="1561" cy="798" r="3" fill="white"/>
<circle cx="1543" cy="499" r="3" fill="white"/>
<circle cx="1511" cy="566" r="3" fill="white"/>
<circle cx="1703" cy="582" r="3" fill="white"/>
<circle cx="1649" cy="517" r="3" fill="white"/>
<circle cx="1697" cy="687" r="3" fill="white"/>
<circle cx="1857" cy="606" r="3" fill="white"/>
<circle cx="1192" cy="624" r="3" fill="white"/>
<circle cx="1259" cy="865" r="3" fill="white"/>
<circle cx="1364" cy="913" r="3" fill="white"/>
<circle cx="917" cy="924" r="3" fill="white"/>
<circle cx="1065" cy="924" r="3" fill="white"/>
<circle cx="1189" cy="923" r="3" fill="white"/>
<circle cx="1029" cy="814" r="3" fill="white"/>
<circle cx="973" cy="879" r="3" fill="white"/>
<circle cx="955" cy="580" r="3" fill="white"/>
<circle cx="923" cy="647" r="3" fill="white"/>
<circle cx="1517" cy="604" r="3" fill="white"/>
<circle cx="1439" cy="748" r="3" fill="white"/>
<circle cx="1115" cy="663" r="3" fill="white"/>
<circle cx="1399" cy="910" r="3" fill="white"/>
<circle cx="1340" cy="612" r="3" fill="white"/>
<circle cx="1061" cy="598" r="3" fill="white"/>
<circle cx="1109" cy="768" r="3" fill="white"/>
<circle cx="1269" cy="687" r="3" fill="white"/>
<circle cx="1824" cy="808" r="3" fill="white"/>
<circle cx="1891" cy="1049" r="3" fill="white"/>
<circle cx="1661" cy="998" r="3" fill="white"/>
<circle cx="1605" cy="1063" r="3" fill="white"/>
<circle cx="1587" cy="764" r="3" fill="white"/>
<circle cx="1555" cy="831" r="3" fill="white"/>
<circle cx="1747" cy="847" r="3" fill="white"/>
<circle cx="1693" cy="782" r="3" fill="white"/>
<circle cx="1741" cy="952" r="3" fill="white"/>
<circle cx="1026" cy="288" r="3" fill="white"/>
<circle cx="1901" cy="871" r="3" fill="white"/>
</g>
<defs>
<clipPath id="clip0">
<rect width="774" height="1080" fill="white" transform="translate(1905)"/>
</clipPath>
<clipPath id="clip1">
<rect width="1920" height="1080" fill="white"/>
</clipPath>
</defs>
</svg>
